# xmcd CD database file
#
# Track frame offsets:
#	150
#	18712
#	36579
#	47204
#	53649
#	71394
#	80247
#	89134
#	100990
#	116679
#	124591
#	147147
#	160786
#	179604
#	188089
#	201033
#	209768
#
# Disc length: 3076 seconds
#
# Revision: 1
# Processed by: cddbd v1.5.2PL0 Copyright (c) Steve Scherf et al.
# Submitted via: CDex 1.70beta2
#
DISCID=030c0211
DTITLE=I Gatti Mézzi - Anco alle puci ni viene la tosse 
DYEAR=2007
DGENRE=Blues
TTITLE0=blue drag
TTITLE1=bimbetto scarmanato
TTITLE2=ragtime der trugolone
TTITLE3=ir mi amio è fii
TTITLE4=i lucchesi
TTITLE5=fra le bodde e' biacchi
TTITLE6=vango per passione
TTITLE7=i mercatari di Natale
TTITLE8=tragedia dell'estate
TTITLE9=monkerino
TTITLE10=i nostri porti
TTITLE11=la stazione
TTITLE12=braccio di ferro
TTITLE13=alla torre n'hanno messo le bretelle
TTITLE14=bello 'r mi arno
TTITLE15=case popolari
TTITLE16=la zuppa e 'r cacciucco
EXTD=YEAR: 2007
EXTT0=
EXTT1=
EXTT2=
EXTT3=
EXTT4=
EXTT5=
EXTT6=
EXTT7=
EXTT8=
EXTT9=
EXTT10=
EXTT11=
EXTT12=
EXTT13=
EXTT14=
EXTT15=
EXTT16=
PLAYORDER=
